<mxfile host="Electron" modified="2023-07-28T07:37:37.581Z" agent="Mozilla/5.0 (Macintosh; Intel Mac OS X 10_15_7) AppleWebKit/537.36 (KHTML, like Gecko) draw.io/21.6.5 Chrome/114.0.5735.243 Electron/25.3.1 Safari/537.36" etag="6JzxLhx9qVKU2q_Ddheg" version="21.6.5" type="device">
  <diagram name="Seite-1" id="Fem3YmBbUGgnqKMnPMfi">
    <mxGraphModel dx="794" dy="599" grid="1" gridSize="10" guides="1" tooltips="1" connect="1" arrows="1" fold="1" page="1" pageScale="1" pageWidth="827" pageHeight="1169" math="0" shadow="0">
      <root>
        <mxCell id="0" />
        <mxCell id="1" parent="0" />
        <mxCell id="_7nRpzQUHyNDAh7aUy0R-1" value="Artwork transportation" style="rounded=1;whiteSpace=wrap;html=1;fillColor=none;labelPosition=center;verticalLabelPosition=top;align=center;verticalAlign=bottom;fontSize=15;spacingBottom=3;" vertex="1" parent="1">
          <mxGeometry x="209" y="340" width="410" height="490" as="geometry" />
        </mxCell>
        <mxCell id="_7nRpzQUHyNDAh7aUy0R-4" style="edgeStyle=orthogonalEdgeStyle;rounded=0;orthogonalLoop=1;jettySize=auto;html=1;exitX=0.5;exitY=0.5;exitDx=0;exitDy=0;exitPerimeter=0;endArrow=none;endFill=0;" edge="1" parent="1" source="_7nRpzQUHyNDAh7aUy0R-2" target="_7nRpzQUHyNDAh7aUy0R-3">
          <mxGeometry relative="1" as="geometry" />
        </mxCell>
        <mxCell id="_7nRpzQUHyNDAh7aUy0R-2" value="Artwork Owner" style="shape=umlActor;verticalLabelPosition=bottom;verticalAlign=top;html=1;outlineConnect=0;" vertex="1" parent="1">
          <mxGeometry x="110" y="430" width="30" height="60" as="geometry" />
        </mxCell>
        <mxCell id="_7nRpzQUHyNDAh7aUy0R-8" value="" style="edgeStyle=orthogonalEdgeStyle;rounded=0;orthogonalLoop=1;jettySize=auto;html=1;dashed=1;endArrow=classic;endFill=1;" edge="1" parent="1" source="_7nRpzQUHyNDAh7aUy0R-3" target="_7nRpzQUHyNDAh7aUy0R-7">
          <mxGeometry relative="1" as="geometry" />
        </mxCell>
        <mxCell id="_7nRpzQUHyNDAh7aUy0R-9" value="&amp;lt;&amp;lt;include&amp;gt;&amp;gt;" style="edgeLabel;html=1;align=center;verticalAlign=middle;resizable=0;points=[];" vertex="1" connectable="0" parent="_7nRpzQUHyNDAh7aUy0R-8">
          <mxGeometry x="-0.275" y="1" relative="1" as="geometry">
            <mxPoint as="offset" />
          </mxGeometry>
        </mxCell>
        <mxCell id="_7nRpzQUHyNDAh7aUy0R-3" value="hand over custody to carrier" style="ellipse;whiteSpace=wrap;html=1;fillColor=none;" vertex="1" parent="1">
          <mxGeometry x="340" y="415" width="136" height="90" as="geometry" />
        </mxCell>
        <mxCell id="_7nRpzQUHyNDAh7aUy0R-6" style="edgeStyle=orthogonalEdgeStyle;rounded=0;orthogonalLoop=1;jettySize=auto;html=1;endArrow=none;endFill=0;" edge="1" parent="1" source="_7nRpzQUHyNDAh7aUy0R-5" target="_7nRpzQUHyNDAh7aUy0R-3">
          <mxGeometry relative="1" as="geometry" />
        </mxCell>
        <mxCell id="_7nRpzQUHyNDAh7aUy0R-5" value="Artwork Carrier" style="shape=umlActor;verticalLabelPosition=bottom;verticalAlign=top;html=1;outlineConnect=0;" vertex="1" parent="1">
          <mxGeometry x="680" y="430" width="30" height="60" as="geometry" />
        </mxCell>
        <mxCell id="_7nRpzQUHyNDAh7aUy0R-7" value="check integrity of artwork" style="ellipse;whiteSpace=wrap;html=1;fillColor=none;" vertex="1" parent="1">
          <mxGeometry x="340" y="560" width="136" height="55" as="geometry" />
        </mxCell>
        <mxCell id="_7nRpzQUHyNDAh7aUy0R-10" value="create artwork NFT" style="ellipse;whiteSpace=wrap;html=1;fillColor=none;" vertex="1" parent="1">
          <mxGeometry x="220" y="620" width="136" height="90" as="geometry" />
        </mxCell>
        <mxCell id="_7nRpzQUHyNDAh7aUy0R-11" value="register logger, carrier, recipient" style="ellipse;whiteSpace=wrap;html=1;fillColor=none;" vertex="1" parent="1">
          <mxGeometry x="220" y="720" width="136" height="90" as="geometry" />
        </mxCell>
        <mxCell id="_7nRpzQUHyNDAh7aUy0R-12" value="add artwork information" style="ellipse;whiteSpace=wrap;html=1;fillColor=none;" vertex="1" parent="1">
          <mxGeometry x="380" y="620" width="136" height="90" as="geometry" />
        </mxCell>
        <mxCell id="_7nRpzQUHyNDAh7aUy0R-13" value="read artwork information" style="ellipse;whiteSpace=wrap;html=1;fillColor=none;" vertex="1" parent="1">
          <mxGeometry x="380" y="720" width="136" height="90" as="geometry" />
        </mxCell>
      </root>
    </mxGraphModel>
  </diagram>
</mxfile>
